<?xml version="1.0" encoding="UTF-8" standalone="no"?>
<!DOCTYPE svg PUBLIC "-//W3C//DTD SVG 1.1//EN" "http://www.w3.org/Graphics/SVG/1.1/DTD/svg11.dtd">
<svg width="100%" height="100%" viewBox="0 0 663 549" version="1.1" xmlns="http://www.w3.org/2000/svg" xmlns:xlink="http://www.w3.org/1999/xlink" xml:space="preserve" xmlns:serif="http://www.serif.com/" style="fill-rule:evenodd;clip-rule:evenodd;stroke-linecap:round;stroke-linejoin:round;stroke-miterlimit:1.5;">
    <g id="Artboard1" transform="matrix(0.737486,0,0,0.676108,-73.0111,-27.7204)">
        <rect x="99" y="41" width="899" height="812" style="fill:none;"/>
        <g transform="matrix(1.37731,0,0,1.49307,-1290.92,-514.527)">
            <path d="M1019,425.157L1019,861.286C1019,886.533 1039.47,907 1064.71,907L1608.3,907C1620.42,907 1632.04,902.185 1640.62,893.615C1649.18,885.044 1654,873.42 1654,861.3L1654,473.7C1654,461.58 1649.18,449.956 1640.62,441.385C1632.04,432.815 1620.42,428 1608.3,428L1293.76,428C1280.16,428 1267.29,421.812 1258.75,411.165C1254.4,405.752 1250.69,401.126 1250.69,401.126C1242.37,387.656 1227.66,379.457 1211.82,379.457C1169.05,379.457 1118.24,379.457 1064.7,379.457C1052.58,379.457 1040.96,384.272 1032.38,392.843C1023.82,401.413 1019,413.037 1019,425.157Z" style="fill:rgb(225,225,225);fill-opacity:0.53;stroke:rgb(147,147,147);stroke-opacity:0.4;stroke-width:9.03px;"/>
        </g>
        <g transform="matrix(1.24068,0,0,1.76469,58.546,-281.226)">
            <path d="M743,291.303C743,281.144 737.738,271.402 728.371,264.219C719.004,257.035 706.3,253 693.054,253L98.946,253C85.7,253 72.996,257.035 63.629,264.219C54.262,271.402 49,281.144 49,291.303L49,598.39C49,616.4 68.038,631 91.522,631C215.624,631 576.394,631 700.486,631C723.966,631 743,616.403 743,598.396L743,291.303Z" style="fill:rgb(225,225,225);fill-opacity:0.66;"/>
        </g>
        <g transform="matrix(1.23679,0,0,1.94391,60.0885,-326.285)">
            <path d="M744.093,299.356L744.093,291.303C744.093,280.922 738.716,270.966 729.144,263.626C719.572,256.286 706.59,252.162 693.054,252.162C565.141,252.162 226.859,252.162 98.946,252.162C85.41,252.162 72.428,256.286 62.856,263.626C53.284,270.966 47.907,280.922 47.907,291.303L47.907,298.873C47.907,299.336 48.397,299.711 49,299.711C49.603,299.711 50.093,299.336 50.093,298.873L50.093,291.303C50.093,281.367 55.24,271.837 64.402,264.811C73.563,257.785 85.989,253.838 98.946,253.838C226.859,253.838 565.141,253.838 693.054,253.838C706.011,253.838 718.437,257.785 727.598,264.811C736.76,271.837 741.907,281.367 741.907,291.303L741.907,299.356C741.907,299.819 742.397,300.194 743,300.194C743.603,300.194 744.093,299.819 744.093,299.356Z" style="fill:url(#_Linear1);"/>
        </g>
    </g>
    <defs>
        <linearGradient id="_Linear1" x1="0" y1="0" x2="1" y2="0" gradientUnits="userSpaceOnUse" gradientTransform="matrix(-3.06853e-13,41.1981,-4.83312,-2.11709e-14,410.801,252.086)"><stop offset="0" style="stop-color:white;stop-opacity:0.51"/><stop offset="1" style="stop-color:white;stop-opacity:0"/></linearGradient>
    </defs>
</svg>
